<svg width="80" height="78" viewBox="0 0 80 78" fill="none" xmlns="http://www.w3.org/2000/svg">
<path d="M39.0793 73.5795L21.9365 75.0652L23.4222 57.9223L59.0791 22.4939C59.6117 21.9497 60.2471 21.5172 60.9489 21.222C61.65 20.9267 62.4037 20.7747 63.1649 20.7747C63.926 20.7747 64.6797 20.9267 65.3814 21.222C66.0831 21.5172 66.7186 21.9497 67.2506 22.4939L74.5077 29.8082C75.0437 30.3395 75.4689 30.9715 75.7586 31.6678C76.0489 32.3641 76.198 33.111 76.198 33.8653C76.198 34.6197 76.0489 35.3666 75.7586 36.0629C75.4689 36.7593 75.0437 37.3913 74.5077 37.9225L39.0793 73.5795Z" fill="#FA6F35"/>
<path d="M39.0793 73.5795L21.9365 75.0652L23.4222 57.9223L59.0791 22.4939C59.6117 21.9497 60.2471 21.5172 60.9489 21.222C61.65 20.9267 62.4037 20.7747 63.1649 20.7747C63.926 20.7747 64.6797 20.9267 65.3814 21.222C66.0831 21.5172 66.7186 21.9497 67.2506 22.4939L74.5077 29.8082C75.0437 30.3395 75.4689 30.9715 75.7586 31.6678C76.0489 32.3641 76.198 33.111 76.198 33.8653C76.198 34.6197 76.0489 35.3666 75.7586 36.0629C75.4689 36.7593 75.0437 37.3913 74.5077 37.9225L39.0793 73.5795Z" stroke="#0D0D0D" stroke-width="5.71429" stroke-linecap="round" stroke-linejoin="round"/>
<path d="M5.30568 22.5625C3.30037 22.2136 3.30037 19.3349 5.30568 18.9861C12.5706 17.7222 18.3488 12.1886 19.9257 4.98522L20.0465 4.43304C20.4804 2.45114 23.3024 2.4388 23.7535 4.41683L23.9002 5.0603C25.5355 12.2298 31.3153 17.7165 38.56 18.9769C40.5756 19.3276 40.5756 22.221 38.56 22.5716C31.3153 23.832 25.5355 29.3188 23.9002 36.4882L23.7535 37.1317C23.3024 39.1098 20.4804 39.0974 20.0465 37.1155L19.9257 36.5634C18.3488 29.3599 12.5706 23.8264 5.30568 22.5625Z" fill="white"/>
<path d="M5.30568 22.5625C3.30037 22.2136 3.30037 19.3349 5.30568 18.9861C12.5706 17.7222 18.3488 12.1886 19.9257 4.98522L20.0465 4.43304C20.4804 2.45114 23.3024 2.4388 23.7535 4.41683L23.9002 5.0603C25.5355 12.2298 31.3153 17.7165 38.56 18.9769C40.5756 19.3276 40.5756 22.221 38.56 22.5716C31.3153 23.832 25.5355 29.3188 23.9002 36.4882L23.7535 37.1317C23.3024 39.1098 20.4804 39.0974 20.0465 37.1155L19.9257 36.5634C18.3488 29.3599 12.5706 23.8264 5.30568 22.5625Z" stroke="#0D0D0D" stroke-width="5.71429" stroke-linecap="round" stroke-linejoin="round"/>
</svg>
