<svg width="559" height="493" viewBox="0 0 559 493" fill="none" xmlns="http://www.w3.org/2000/svg">
<g clip-path="url(#clip0_465_3023)">
<path d="M386.352 465V432.154H377.667V420.328H386.352V410.227C386.352 402.289 391.482 395 403.304 395C408.09 395 411.629 395.459 411.629 395.459L411.351 406.502C411.351 406.502 407.741 406.467 403.802 406.467C399.539 406.467 398.856 408.432 398.856 411.693V420.328H411.689L411.131 432.154H398.856V465H386.352Z" fill="#1877F2"/>
</g>
<path d="M372.106 339.702C315.569 435.652 209.281 438.002 113.115 381.593C16.948 325.184 -32.681 231.377 23.8554 135.427C80.3918 39.4767 204.182 7.42241 300.349 63.8314C396.515 120.24 428.642 243.752 372.106 339.702Z" fill="#FAE9FD"/>
<path d="M498.298 265.164C535.248 329.164 464.753 353.253 386.667 398.337C308.58 443.42 252.471 492.426 215.52 428.426C178.57 364.426 223.302 295.714 301.389 250.631C379.475 205.548 461.348 201.165 498.298 265.164Z" fill="#DCF6FD" fill-opacity="0.6"/>
<path d="M539.622 244.533C536.585 241.065 534.911 236.611 534.911 232H521.178V287.111C521.074 290.094 519.816 292.92 517.668 294.993C515.52 297.066 512.652 298.224 509.667 298.222C503.356 298.222 498.111 293.067 498.111 286.667C498.111 279.022 505.489 273.289 513.089 275.644V261.6C497.756 259.556 484.333 271.467 484.333 286.667C484.333 301.467 496.6 312 509.622 312C523.578 312 534.911 300.667 534.911 286.667V258.711C540.48 262.71 547.166 264.856 554.022 264.844V251.111C554.022 251.111 545.667 251.511 539.622 244.533Z" fill="#0D0D0D"/>
<path fill-rule="evenodd" clip-rule="evenodd" d="M197.345 36.0044C269.15 62.4746 320.355 131.511 320.355 212.507C320.355 310.985 244.66 391.784 148.278 399.892C147.59 399.599 146.903 399.302 146.216 399.002C242.998 391.883 319.306 311.107 319.306 212.507C319.306 130.971 267.124 61.6226 194.334 36.036C195.337 36.018 196.341 36.0074 197.345 36.0044ZM113.897 382.535C119.943 383.182 126.083 383.513 132.301 383.513C226.745 383.513 303.307 306.951 303.307 212.507C303.307 123.413 235.174 50.2326 148.17 42.2267C147.151 42.4852 146.134 42.7515 145.119 43.0257C232.996 49.5786 302.258 122.954 302.258 212.507C302.258 306.372 226.165 382.464 132.301 382.464C125.318 382.464 118.435 382.043 111.673 381.225C112.112 381.486 112.552 381.746 112.993 382.005C113.295 382.182 113.596 382.359 113.897 382.535ZM74.2945 355.164C92.1971 362.451 111.78 366.465 132.301 366.465C217.33 366.465 286.259 297.536 286.259 212.507C286.259 127.478 217.33 58.5484 132.301 58.5484C120.516 58.5484 109.041 59.8724 98.0157 62.3798C96.9523 62.9831 95.8939 63.5964 94.8407 64.2197C106.827 61.2011 119.377 59.5977 132.301 59.5977C216.75 59.5977 285.21 128.057 285.21 212.507C285.21 296.956 216.75 365.416 132.301 365.416C110.7 365.416 90.146 360.937 71.5159 352.858C72.4348 353.63 73.361 354.399 74.2945 355.164ZM17.2069 286.685C41.5843 324.431 84.0245 349.417 132.301 349.417C207.914 349.417 269.211 288.12 269.211 212.507C269.211 136.893 207.914 75.5966 132.301 75.5966C97.5843 75.5966 65.8859 88.5179 41.7524 109.814C40.3159 111.569 38.905 113.354 37.5206 115.168C61.9981 91.3296 95.4346 76.6459 132.301 76.6459C207.335 76.6459 268.162 137.473 268.162 212.507C268.162 287.541 207.335 348.368 132.301 348.368C80.3677 348.368 35.2405 319.229 12.376 276.409C13.8613 279.869 15.473 283.295 17.2069 286.685ZM243.129 41.1453C243.629 41.2607 244.129 41.3782 244.628 41.4976C300.198 78.0728 336.879 141.006 336.879 212.507C336.879 308.846 270.287 389.631 180.623 411.345C180.279 411.249 179.934 411.151 179.59 411.053C269.483 389.722 336.354 308.924 336.354 212.507C336.354 140.672 299.234 77.5061 243.129 41.1453ZM251.113 212.507C251.113 278.125 197.919 331.32 132.301 331.32C66.6822 331.32 13.4879 278.125 13.4879 212.507C13.4879 146.888 66.6822 93.6941 132.301 93.6941C197.919 93.6941 251.113 146.888 251.113 212.507ZM132.301 332.369C198.499 332.369 252.163 278.705 252.163 212.507C252.163 146.309 198.499 92.6448 132.301 92.6448C66.1027 92.6448 12.4386 146.309 12.4386 212.507C12.4386 278.705 66.1027 332.369 132.301 332.369ZM234.065 212.507C234.065 268.71 188.504 314.271 132.301 314.271C76.0976 314.271 30.5361 268.71 30.5361 212.507C30.5361 156.304 76.0976 110.742 132.301 110.742C188.504 110.742 234.065 156.304 234.065 212.507ZM132.301 315.321C189.083 315.321 235.114 269.289 235.114 212.507C235.114 155.724 189.083 109.693 132.301 109.693C75.5181 109.693 29.4868 155.724 29.4868 212.507C29.4868 269.289 75.5181 315.321 132.301 315.321ZM217.017 212.507C217.017 259.294 179.088 297.223 132.301 297.223C85.5131 297.223 47.5843 259.294 47.5843 212.507C47.5843 165.719 85.5131 127.791 132.301 127.791C179.088 127.791 217.017 165.719 217.017 212.507ZM132.301 298.272C179.668 298.272 218.066 259.874 218.066 212.507C218.066 165.14 179.668 126.741 132.301 126.741C84.9336 126.741 46.535 165.14 46.535 212.507C46.535 259.874 84.9336 298.272 132.301 298.272ZM199.969 212.507C199.969 249.879 169.673 280.175 132.301 280.175C94.9286 280.175 64.6325 249.879 64.6325 212.507C64.6325 175.135 94.9286 144.839 132.301 144.839C169.673 144.839 199.969 175.135 199.969 212.507ZM132.301 281.224C170.252 281.224 201.018 250.458 201.018 212.507C201.018 174.555 170.252 143.789 132.301 143.789C94.349 143.789 63.5832 174.555 63.5832 212.507C63.5832 250.458 94.349 281.224 132.301 281.224ZM182.921 212.507C182.921 240.463 160.257 263.127 132.301 263.127C104.344 263.127 81.6807 240.463 81.6807 212.507C81.6807 184.55 104.344 161.887 132.301 161.887C160.257 161.887 182.921 184.55 182.921 212.507ZM132.301 264.176C160.837 264.176 183.97 241.043 183.97 212.507C183.97 183.971 160.837 160.838 132.301 160.838C103.764 160.838 80.6314 183.971 80.6314 212.507C80.6314 241.043 103.764 264.176 132.301 264.176ZM165.872 212.507C165.872 231.048 150.842 246.079 132.301 246.079C113.759 246.079 98.7289 231.048 98.7289 212.507C98.7289 193.966 113.759 178.935 132.301 178.935C150.842 178.935 165.872 193.966 165.872 212.507ZM132.301 247.128C151.421 247.128 166.922 231.628 166.922 212.507C166.922 193.386 151.421 177.886 132.301 177.886C113.18 177.886 97.6796 193.386 97.6796 212.507C97.6796 231.628 113.18 247.128 132.301 247.128ZM148.824 212.507C148.824 221.633 141.426 229.03 132.301 229.03C123.175 229.03 115.777 221.633 115.777 212.507C115.777 203.381 123.175 195.983 132.301 195.983C141.426 195.983 148.824 203.381 148.824 212.507ZM132.301 230.08C142.006 230.08 149.873 222.212 149.873 212.507C149.873 202.802 142.006 194.934 132.301 194.934C122.595 194.934 114.728 202.802 114.728 212.507C114.728 222.212 122.595 230.08 132.301 230.08Z" fill="white"/>
<circle cx="94" cy="434" r="14" fill="#FD29B5"/>
<g clip-path="url(#clip1_465_3023)">
<path d="M202.35 42.1315V88.2551H186.991V42.1315H202.35ZM203.327 27.8894C203.358 30.1545 202.575 32.0472 200.977 33.5676C199.379 35.088 197.277 35.8482 194.67 35.8482H194.577C192.033 35.8482 189.985 35.088 188.434 33.5676C186.882 32.0472 186.106 30.1545 186.106 27.8894C186.106 25.5933 186.905 23.6929 188.503 22.188C190.101 20.6831 192.188 19.9307 194.763 19.9307C197.339 19.9307 199.402 20.6831 200.953 22.188C202.505 23.6929 203.296 25.5933 203.327 27.8894ZM257.596 61.819V88.2551H242.283V63.5876C242.283 60.3296 241.655 57.7775 240.398 55.9313C239.142 54.0851 237.179 53.162 234.511 53.162C232.556 53.162 230.919 53.6973 229.6 54.7678C228.282 55.8382 227.297 57.1647 226.645 58.7472C226.304 59.678 226.133 60.9347 226.133 62.5171V88.2551H210.82C210.883 75.8748 210.914 65.8371 210.914 58.1421C210.914 50.4471 210.898 45.8549 210.867 44.3655L210.82 42.1315H226.133V48.8336H226.04C226.66 47.8407 227.297 46.9719 227.948 46.2272C228.6 45.4825 229.476 44.6758 230.578 43.807C231.679 42.9382 233.029 42.2633 234.627 41.7824C236.225 41.3015 238.001 41.061 239.956 41.061C245.262 41.061 249.528 42.8218 252.755 46.3436C255.982 49.8653 257.596 55.0238 257.596 61.819Z" fill="#0A66C2"/>
</g>
<circle cx="39" cy="387" r="7" fill="#FF9A3E"/>
<circle cx="322.5" cy="9.5" r="9.5" fill="#5F27FC"/>
<g clip-path="url(#clip2_465_3023)">
<path d="M153.506 180.098L82.6293 207.571C79.7771 208.85 78.8124 211.412 81.9399 212.803L100.123 218.611L144.086 191.3C146.487 189.585 148.944 190.043 146.83 191.929L109.071 226.293L107.885 240.837C108.983 243.082 110.995 243.093 112.278 241.976L122.725 232.041L140.616 245.507C144.771 247.98 147.033 246.384 147.927 241.852L159.662 185.997C160.88 180.418 158.802 177.96 153.506 180.098Z" fill="#229ED9"/>
</g>
<circle cx="175" cy="448" r="45" fill="#DCF6FD"/>
<path d="M154.136 467.636C153.155 467.636 152.295 467.268 151.559 466.532C150.823 465.796 150.455 464.936 150.455 463.955V432.046C150.455 431.064 150.823 430.205 151.559 429.468C152.295 428.732 153.155 428.364 154.136 428.364H195.864C196.845 428.364 197.705 428.732 198.441 429.468C199.177 430.205 199.545 431.064 199.545 432.046V463.955C199.545 464.936 199.177 465.796 198.441 466.532C197.705 467.268 196.845 467.636 195.864 467.636H154.136ZM175 449.105L195.864 435.421V432.046L175 445.423L154.136 432.046V435.421L175 449.105Z" fill="#71CCE4"/>
<circle cx="429" cy="79" r="55" fill="#FAE9FD"/>
<path d="M455.25 109C448.806 109 442.236 107.444 435.542 104.333C428.847 101.222 422.639 96.8056 416.917 91.0833C411.194 85.3611 406.778 79.1528 403.667 72.4583C400.556 65.7639 399 59.1944 399 52.75C399 51.6944 399.361 50.8056 400.083 50.0833C400.806 49.3611 401.694 49 402.75 49H414.417C415.194 49 415.861 49.2778 416.417 49.8333C416.972 50.3889 417.361 51.0833 417.583 51.9167L419.833 62.4167C419.944 63.1944 419.931 63.9028 419.792 64.5417C419.653 65.1806 419.361 65.7222 418.917 66.1667L410.583 74.5833C412.028 77.0278 413.556 79.3056 415.167 81.4167C416.778 83.5278 418.556 85.5278 420.5 87.4167C422.556 89.5278 424.722 91.4583 427 93.2083C429.278 94.9583 431.667 96.5 434.167 97.8333L442.083 89.6667C442.639 89.0556 443.278 88.6389 444 88.4167C444.722 88.1944 445.444 88.1389 446.167 88.25L456.083 90.4167C456.917 90.6389 457.611 91.0833 458.167 91.75C458.722 92.4167 459 93.1667 459 94V105.25C459 106.306 458.639 107.194 457.917 107.917C457.194 108.639 456.306 109 455.25 109Z" fill="#E091ED"/>
<g clip-path="url(#clip3_465_3023)">
<path d="M356.662 236.547C342.739 230.623 324.039 226.788 304.068 225.741C300.992 225.558 297.912 225.467 294.831 225.469C309.595 207.439 325.435 195.333 335.868 194.941C337.921 194.87 339.649 195.285 341.051 196.184C345.56 199.124 346.803 207.467 344.513 219.072C344.264 220.664 345.282 222.232 346.803 222.533C347.181 222.613 347.571 222.616 347.95 222.544C348.329 222.471 348.69 222.324 349.012 222.111C349.334 221.898 349.611 221.623 349.826 221.303C350.041 220.982 350.19 220.622 350.264 220.243C353.128 205.703 351.01 195.71 344.264 191.307C341.849 189.715 338.909 188.959 335.643 189.088C322.595 189.586 304.168 203.757 287.257 225.574C280.362 225.755 273.485 226.361 266.664 227.391C262.552 208.911 264.173 195.663 270.451 192.473C271.316 192 272.268 191.78 273.363 191.675C277.819 191.331 283.944 194.195 290.647 199.77C291.89 200.788 293.731 200.664 294.754 199.392C295.002 199.099 295.189 198.76 295.305 198.394C295.421 198.029 295.463 197.643 295.428 197.261C295.394 196.879 295.284 196.508 295.105 196.169C294.926 195.829 294.682 195.529 294.386 195.285C286.339 188.634 278.947 185.373 272.89 185.818C271.109 185.96 269.371 186.434 267.764 187.214C260.167 191.096 257.131 202.055 259.024 218.067C259.469 221.376 260.042 224.838 260.893 228.376C239.971 232.559 226.655 240.955 226.081 251.484C225.679 258.957 231.584 266.052 243.16 272.029C243.501 272.205 243.875 272.313 244.258 272.345C244.641 272.377 245.027 272.333 245.393 272.215C245.759 272.097 246.099 271.908 246.392 271.659C246.684 271.409 246.925 271.104 247.099 270.762C247.278 270.42 247.386 270.046 247.419 269.662C247.451 269.278 247.406 268.891 247.288 268.524C247.169 268.157 246.978 267.818 246.727 267.525C246.475 267.233 246.168 266.994 245.823 266.822C236.585 262.065 231.608 256.71 231.905 251.809C232.23 244.909 243.208 237.833 262.261 234.08C264.093 240.773 266.328 247.35 268.955 253.774C262.457 265.803 257.747 277.661 255.338 288.194C251.747 303.91 253.669 315.117 260.812 319.746C263.102 321.237 265.765 321.988 268.754 321.988C274.706 321.988 281.926 319.047 290.097 313.224C290.41 313.001 290.675 312.719 290.878 312.393C291.082 312.068 291.219 311.705 291.282 311.327C291.345 310.948 291.333 310.561 291.247 310.187C291.161 309.813 291.001 309.46 290.779 309.148C290.556 308.835 290.273 308.57 289.948 308.367C289.622 308.164 289.26 308.026 288.882 307.963C288.503 307.9 288.116 307.912 287.742 307.998C287.368 308.084 287.015 308.244 286.703 308.467C276.868 315.509 268.577 317.852 263.996 314.859C259.163 311.699 258.092 302.485 261.085 289.514C263.098 280.673 266.86 270.833 271.967 260.697C273.242 263.486 274.579 266.277 275.978 269.069C285.067 286.898 296.198 302.385 307.281 312.727C316.122 320.946 324.341 325.23 331.087 325.23C333.329 325.23 335.423 324.751 337.317 323.81C344.608 320.075 347.778 309.714 346.229 294.649C344.814 280.53 339.483 263.341 331.216 246.186C330.878 245.494 330.282 244.962 329.556 244.705C328.829 244.448 328.031 244.487 327.334 244.814C326.984 244.979 326.671 245.211 326.412 245.497C326.153 245.784 325.953 246.118 325.823 246.482C325.693 246.846 325.637 247.232 325.656 247.617C325.676 248.003 325.772 248.381 325.937 248.73C343.069 284.436 344.293 313.673 334.678 318.579C324.517 323.781 300.085 303.561 281.185 266.43C279.107 262.406 277.188 258.302 275.433 254.128C277.599 250.269 279.889 246.358 282.433 242.476C284.909 238.683 287.506 234.97 290.222 231.345H292.741C296.179 231.345 299.913 231.421 303.796 231.646C345.407 233.841 373.75 247.979 373.176 259.287C372.928 264.163 367.271 269.098 357.709 272.808C357.015 273.109 356.466 273.668 356.175 274.365C355.884 275.063 355.874 275.847 356.148 276.551C356.422 277.256 356.958 277.828 357.644 278.146C358.33 278.464 359.112 278.504 359.827 278.259C371.976 273.554 378.651 267.075 379.028 259.588C379.473 251.115 371.584 242.949 356.714 236.623V236.571L356.662 236.547ZM277.499 239.239C275.814 241.845 274.194 244.493 272.641 247.18C270.871 242.554 269.334 237.842 268.037 233.061C272.914 232.317 277.823 231.802 282.748 231.517C280.931 234.039 279.188 236.614 277.523 239.239V239.167L277.499 239.239Z" fill="#71CCE4"/>
</g>
<path fill-rule="evenodd" clip-rule="evenodd" d="M291.593 267.677C294.73 270.815 298.765 272.384 303.695 272.384C308.626 272.384 312.66 270.815 315.798 267.677C318.936 264.54 320.504 260.505 320.504 255.575C320.504 250.644 318.936 246.61 315.798 243.472C312.66 240.334 308.626 238.766 303.695 238.766C298.765 238.766 294.73 240.334 291.593 243.472C288.455 246.61 286.886 250.644 286.886 255.575C286.886 260.505 288.455 264.54 291.593 267.677Z" fill="#71CCE4"/>
<path d="M267.836 308.355V297.822C267.836 294.983 268.546 292.555 269.965 290.538C271.385 288.521 273.215 286.989 275.456 285.943C280.461 283.702 285.261 282.021 289.856 280.9C294.45 279.78 299.063 279.219 303.695 279.219C308.327 279.219 312.922 279.798 317.479 280.956C322.036 282.114 326.817 283.777 331.823 285.943C334.138 286.989 336.006 288.521 337.426 290.538C338.845 292.555 339.555 294.983 339.555 297.822V308.355H267.836Z" fill="#0E9BC0"/>
<defs>
<clipPath id="clip0_465_3023">
<rect width="34.0226" height="70" fill="white" transform="translate(377.667 395)"/>
</clipPath>
<clipPath id="clip1_465_3023">
<rect width="71.4894" height="70" fill="white" transform="translate(186.106 19)"/>
</clipPath>
<clipPath id="clip2_465_3023">
<rect width="80" height="80" fill="white" transform="translate(80 173)"/>
</clipPath>
<clipPath id="clip3_465_3023">
<rect width="153" height="153" fill="white" transform="translate(226 179)"/>
</clipPath>
</defs>
</svg>
