<svg width="156" height="18" viewBox="0 0 156 18" fill="none" xmlns="http://www.w3.org/2000/svg">
<path d="M-15.2 8.7999C-9.17334 0.266569 -3.14668 0.266569 2.87999 8.7999C8.90666 17.3332 14.9333 17.3332 20.96 8.7999C26.9867 0.266569 33.0133 0.266569 39.04 8.7999C45.0667 17.3332 51.0933 17.3332 57.12 8.7999C63.1467 0.266569 69.1733 0.266569 75.2 8.7999C81.2267 17.3332 87.2533 17.3332 93.28 8.7999C99.3067 0.266569 105.333 0.266569 111.36 8.7999C117.387 17.3332 123.413 17.3332 129.44 8.7999C135.467 0.266569 141.493 0.266569 147.52 8.7999C153.547 17.3332 159.573 17.3332 165.6 8.7999C171.627 0.266569 177.653 0.266569 183.68 8.7999C189.707 17.3332 195.733 17.3332 201.76 8.7999C207.787 0.266569 213.813 0.266569 219.84 8.7999C225.867 17.3332 231.893 17.3332 237.92 8.7999C243.947 0.266569 249.973 0.266569 256 8.7999C262.027 17.3332 268.053 17.3332 274.08 8.7999C280.107 0.266569 286.133 0.266569 292.16 8.7999C298.187 17.3332 304.213 17.3332 310.24 8.7999C316.267 0.266569 322.293 0.266569 328.32 8.7999C334.347 17.3332 340.373 17.3332 346.4 8.7999" stroke="#47C6E8" stroke-width="4"/>
<path d="M-15.2 8.7999C-9.17334 0.266569 -3.14668 0.266569 2.87999 8.7999C8.90666 17.3332 14.9333 17.3332 20.96 8.7999C26.9867 0.266569 33.0133 0.266569 39.04 8.7999C45.0667 17.3332 51.0933 17.3332 57.12 8.7999C63.1467 0.266569 69.1733 0.266569 75.2 8.7999C81.2267 17.3332 87.2533 17.3332 93.28 8.7999C99.3067 0.266569 105.333 0.266569 111.36 8.7999C117.387 17.3332 123.413 17.3332 129.44 8.7999C135.467 0.266569 141.493 0.266569 147.52 8.7999C153.547 17.3332 159.573 17.3332 165.6 8.7999C171.627 0.266569 177.653 0.266569 183.68 8.7999C189.707 17.3332 195.733 17.3332 201.76 8.7999C207.787 0.266569 213.813 0.266569 219.84 8.7999C225.867 17.3332 231.893 17.3332 237.92 8.7999C243.947 0.266569 249.973 0.266569 256 8.7999C262.027 17.3332 268.053 17.3332 274.08 8.7999C280.107 0.266569 286.133 0.266569 292.16 8.7999C298.187 17.3332 304.213 17.3332 310.24 8.7999C316.267 0.266569 322.293 0.266569 328.32 8.7999C334.347 17.3332 340.373 17.3332 346.4 8.7999" stroke="white" stroke-opacity="0.4" stroke-width="4"/>
</svg>
