<svg width="80" height="80" viewBox="0 0 80 80" fill="none" xmlns="http://www.w3.org/2000/svg">
<path d="M77.1428 71.4283V19.9998H2.85711V71.4283C2.85711 74.5843 5.41548 77.1426 8.57139 77.1426H71.4285C74.5845 77.1426 77.1428 74.5843 77.1428 71.4283Z" fill="white"/>
<path d="M77.1428 8.57097V19.9995H2.85707V8.57097C2.85707 5.41507 5.41545 2.85669 8.57136 2.85669H71.4285C74.5845 2.85669 77.1428 5.41506 77.1428 8.57097Z" fill="#84A0E5"/>
<path d="M71.4285 2.85693H8.57139C5.41548 2.85693 2.85711 5.4153 2.85711 8.57122V71.4284C2.85711 74.5844 5.41548 77.1426 8.57139 77.1426H71.4285C74.5845 77.1426 77.1428 74.5844 77.1428 71.4284V8.57122C77.1428 5.4153 74.5845 2.85693 71.4285 2.85693Z" stroke="#0D0D0D" stroke-width="5.71429" stroke-linecap="round" stroke-linejoin="round"/>
<path d="M2.85711 19.9998H77.1428" stroke="#0D0D0D" stroke-width="5.71429" stroke-linecap="round" stroke-linejoin="round"/>
<path d="M54.2857 48.5713H25.7143" stroke="#0D0D0D" stroke-width="5.71429" stroke-linecap="round" stroke-linejoin="round"/>
<path d="M40 34.2856V62.8571" stroke="#0D0D0D" stroke-width="5.71429" stroke-linecap="round" stroke-linejoin="round"/>
</svg>
