<svg width="80" height="80" viewBox="0 0 80 80" fill="none" xmlns="http://www.w3.org/2000/svg">
<g clip-path="url(#clip0_503_494)">
<path d="M71.4285 77.1427C74.5845 77.1427 77.1428 74.5844 77.1428 71.4284V20.0444H2.85712V71.4284C2.85712 74.5844 5.41549 77.1427 8.5714 77.1427H71.4285Z" fill="white"/>
<path d="M4.53079 4.53061C3.45916 5.60225 2.85712 7.05568 2.85712 8.57122V20.064H77.1428V8.57122C77.1428 7.05568 76.5406 5.60225 75.4691 4.53061C74.3977 3.45897 72.944 2.85693 71.4285 2.85693H8.5714C7.05586 2.85693 5.60243 3.45897 4.53079 4.53061Z" fill="#319CE9"/>
<path d="M4.53079 4.53061C3.45916 5.60225 2.85712 7.05568 2.85712 8.57122V20.064H77.1428V8.57122C77.1428 7.05568 76.5405 5.60225 75.4691 4.53061C74.3977 3.45897 72.944 2.85693 71.4285 2.85693H8.5714C7.05586 2.85693 5.60243 3.45897 4.53079 4.53061Z" stroke="#0D0D0D" stroke-width="5.71429" stroke-linecap="round" stroke-linejoin="round"/>
<path d="M71.4285 77.1427C74.5845 77.1427 77.1428 74.5844 77.1428 71.4284V20.0444H2.85712V71.4284C2.85712 74.5844 5.41549 77.1427 8.5714 77.1427H71.4285Z" stroke="#0D0D0D" stroke-width="5.71429" stroke-linecap="round" stroke-linejoin="round"/>
<path fill-rule="evenodd" clip-rule="evenodd" d="M10 40C10 37.2386 12.017 35 14.5052 35H34.2448C36.7329 35 38.75 37.2386 38.75 40C38.75 42.7614 36.7329 45 34.2448 45H14.5052C12.017 45 10 42.7614 10 40Z" fill="#0D0D0D"/>
<path fill-rule="evenodd" clip-rule="evenodd" d="M42.0417 40C42.0417 37.2386 44.0588 35 46.5469 35H66.2866C68.7747 35 70.7917 37.2386 70.7917 40C70.7917 42.7614 68.7747 45 66.2866 45H46.5469C44.0588 45 42.0417 42.7614 42.0417 40Z" fill="#0D0D0D"/>
<path fill-rule="evenodd" clip-rule="evenodd" d="M10.0417 58C10.0417 55.2386 12.0588 53 14.5469 53H34.2866C36.7747 53 38.7917 55.2386 38.7917 58C38.7917 60.7614 36.7747 63 34.2866 63H14.5469C12.0588 63 10.0417 60.7614 10.0417 58Z" fill="#0D0D0D"/>
<path fill-rule="evenodd" clip-rule="evenodd" d="M42 58C42 55.2386 44.017 53 46.5052 53H66.2448C68.7329 53 70.75 55.2386 70.75 58C70.75 60.7614 68.7329 63 66.2448 63H46.5052C44.017 63 42 60.7614 42 58Z" fill="#0D0D0D"/>
</g>
<defs>
<clipPath id="clip0_503_494">
<rect width="80" height="80" fill="white"/>
</clipPath>
</defs>
</svg>
