<svg width="80" height="59" viewBox="0 0 80 59" fill="none" xmlns="http://www.w3.org/2000/svg">
<path d="M15.6723 12.3808L3.13281 5.63232L3.13289 32.9348L33.687 53.7634C37.6366 56.4554 42.8446 56.4057 46.7418 53.6377L76.5857 32.8009V3.04443L61.1234 11.4022L49.5048 10.1591C45.2381 9.7026 40.97 10.8636 37.5334 13.3879C37.4527 13.3879 37.3747 13.3584 37.3133 13.306C34.4314 10.8469 30.6025 9.79586 26.8652 10.4429L15.6723 12.3808Z" fill="#47C6E8"/>
<path d="M3.13281 5.63379L15.6723 12.3823L26.8653 10.4444C30.6437 9.79013 34.5158 10.8717 37.4082 13.3893" stroke="#0D0D0D" stroke-width="5.71429" stroke-linecap="round" stroke-linejoin="round"/>
<path d="M64.4708 41.0446L46.7417 53.6356C42.8445 56.4036 37.6365 56.4534 33.6869 53.7608L3.13281 32.9326" stroke="#0D0D0D" stroke-width="5.71429" stroke-linecap="round" stroke-linejoin="round"/>
<path d="M76.5834 32.8009L64.0388 41.373L44.5749 25.6569L37.4155 30.8677C34.5044 32.9865 30.4375 32.4156 28.2222 29.5772C26.012 26.7453 26.4384 22.6723 29.1872 20.3595L36.6419 14.0872C40.2149 11.081 44.8596 9.66232 49.5025 10.1591L61.1211 11.4022L76.5834 3.04443" stroke="#0D0D0D" stroke-width="5.71429" stroke-linecap="round" stroke-linejoin="round"/>
<path d="M44.5781 25.7012C49.2616 29.8738 55.9036 27.7451 58.3731 24.3389" stroke="#0D0D0D" stroke-width="5.71429" stroke-linecap="round" stroke-linejoin="round"/>
</svg>
