<svg width="80" height="80" viewBox="0 0 80 80" fill="none" xmlns="http://www.w3.org/2000/svg">
<path d="M23.9668 46.2505C29.8348 46.2505 34.5918 41.4935 34.5918 35.6255C34.5918 29.7575 29.8348 25.0005 23.9668 25.0005C18.0988 25.0005 13.3418 29.7575 13.3418 35.6255C13.3418 41.4935 18.0988 46.2505 23.9668 46.2505Z" fill="#CB45E2"/>
<path d="M5.71453 66.8868C3.96463 69.9799 3.02735 73.4668 2.99023 77.0205H44.9547C44.9176 73.4668 43.9803 69.9799 42.2304 66.8868C38.5428 60.3674 31.4604 56.2277 23.9725 56.2114C16.4845 56.2277 9.40219 60.3674 5.71453 66.8868Z" fill="#CB45E2"/>
<path d="M68.118 28.9055C68.1426 22.4624 62.6889 17.1011 56.2472 17.2349C49.8054 17.3687 44.5794 22.9517 44.871 29.3884C45.0587 33.5314 47.5926 37.424 51.3051 39.2725V44.9876C51.3138 45.3255 51.4542 45.6466 51.6963 45.8825C51.9383 46.1184 52.263 46.2504 52.601 46.2502H60.3763C60.714 46.2504 61.0392 46.1184 61.2809 45.8825C61.5232 45.6466 61.6632 45.3255 61.6723 44.9876V39.1728C65.5015 37.2665 68.0655 33.1829 68.118 28.9055Z" fill="#DCF6FD"/>
<path d="M23.9668 46.2505C29.8348 46.2505 34.5918 41.4935 34.5918 35.6255C34.5918 29.7575 29.8348 25.0005 23.9668 25.0005C18.0988 25.0005 13.3418 29.7575 13.3418 35.6255C13.3418 41.4935 18.0988 46.2505 23.9668 46.2505Z" stroke="#0D0D0D" stroke-width="5.71429" stroke-linecap="round" stroke-linejoin="round"/>
<path d="M2.99023 77.0205C3.02735 73.4668 3.96463 69.9799 5.71453 66.8868C9.40219 60.3674 16.4845 56.2277 23.9725 56.2114C31.4604 56.2277 38.5428 60.3674 42.2304 66.8868C43.9803 69.9799 44.9176 73.4668 44.9547 77.0205" stroke="#0D0D0D" stroke-width="5.71429" stroke-linecap="round" stroke-linejoin="round"/>
<path d="M56.4941 7.90393V3.21484" stroke="#0D0D0D" stroke-width="5.71429" stroke-linecap="round" stroke-linejoin="round"/>
<path d="M72.4902 13.66L76.328 10.9658" stroke="#0D0D0D" stroke-width="5.71429" stroke-linecap="round" stroke-linejoin="round"/>
<path d="M40.4883 13.66L36.6504 10.9658" stroke="#0D0D0D" stroke-width="5.71429" stroke-linecap="round" stroke-linejoin="round"/>
<path d="M68.1184 28.9055C68.1424 22.4624 62.6892 17.1011 56.2472 17.2349C49.8054 17.3687 44.5794 22.9517 44.871 29.3884C45.0587 33.5314 47.5926 37.424 51.3051 39.2725V44.9876C51.3138 45.3255 51.4542 45.6466 51.6963 45.8825C51.9383 46.1184 52.263 46.2504 52.601 46.2502H60.3761C60.7144 46.2504 61.039 46.1184 61.2812 45.8825C61.523 45.6466 61.6635 45.3255 61.6721 44.9876V39.1728C65.5012 37.2665 68.0652 33.1829 68.1184 28.9055Z" stroke="#0D0D0D" stroke-width="5.71429" stroke-linecap="round" stroke-linejoin="round"/>
</svg>
