<svg width="74" height="80" viewBox="0 0 74 80" fill="none" xmlns="http://www.w3.org/2000/svg">
<path d="M61.9148 33.3143H41.9719C41.5843 33.3142 41.2006 33.3914 40.8432 33.5414C40.4859 33.6915 40.162 33.9112 39.8907 34.1879C39.6193 34.4646 39.4058 34.7927 39.2628 35.1529C39.1198 35.5131 39.05 35.8982 39.0576 36.2857V44.3428C39.0576 45.1157 39.3646 45.857 39.9111 46.4035C40.4577 46.9501 41.199 47.2571 41.9719 47.2571H55.0576C55.0988 49.4658 54.6742 51.6584 53.8108 53.6917C52.9476 55.7252 51.6653 57.5536 50.0476 59.0581C48.43 60.5627 46.5134 61.709 44.4228 62.4227C42.3322 63.1364 40.1146 63.401 37.9147 63.1999C25.1147 63.1999 18.9433 52.3428 18.9433 40C18.9433 27.6571 25.5719 16.8 37.9147 16.8C43.3639 16.6192 48.7033 18.3585 53.0004 21.7143C53.3439 21.9391 53.7326 22.0856 54.1389 22.1435C54.5451 22.2013 54.9594 22.1692 55.3519 22.0492C55.7445 21.9292 56.1056 21.7245 56.4108 21.4493C56.7154 21.1742 56.9554 20.8355 57.1148 20.4571L60.7148 12.2285C61.0108 11.622 61.0874 10.9316 60.9308 10.275C60.7748 9.61849 60.3954 9.03655 59.8576 8.62855C53.3048 4.71023 45.7759 2.72894 38.1433 2.91425C17.3433 2.85711 3.17188 19.0285 3.17188 40C3.17188 60.9713 17.4004 77.1427 37.9147 77.1427C58.4291 77.1427 70.8291 62.5141 70.8291 42.8571C70.8291 36.5714 68.3148 33.3143 61.9148 33.3143Z" fill="#FFC365"/>
<path d="M61.9148 33.3143H41.9719C41.5843 33.3142 41.2006 33.3914 40.8432 33.5414C40.4859 33.6915 40.162 33.9112 39.8907 34.1879C39.6193 34.4646 39.4058 34.7927 39.2628 35.1529C39.1198 35.5131 39.05 35.8982 39.0576 36.2857V44.3428C39.0576 45.1157 39.3646 45.857 39.9111 46.4035C40.4577 46.9501 41.199 47.2571 41.9719 47.2571H55.0576C55.0988 49.4658 54.6742 51.6584 53.8108 53.6917C52.9476 55.7252 51.6653 57.5536 50.0476 59.0581C48.43 60.5627 46.5134 61.709 44.4228 62.4227C42.3322 63.1364 40.1146 63.401 37.9147 63.1999C25.1147 63.1999 18.9433 52.3428 18.9433 40C18.9433 27.6571 25.5719 16.8 37.9147 16.8C43.3639 16.6192 48.7033 18.3585 53.0004 21.7143C53.3439 21.9391 53.7326 22.0856 54.1389 22.1435C54.5451 22.2013 54.9594 22.1692 55.3519 22.0492C55.7445 21.9292 56.1056 21.7245 56.4108 21.4493C56.7154 21.1742 56.9554 20.8355 57.1148 20.4571L60.7148 12.2285C61.0108 11.622 61.0874 10.9316 60.9308 10.275C60.7748 9.61849 60.3954 9.03655 59.8576 8.62855C53.3048 4.71023 45.7759 2.72894 38.1433 2.91425C17.3433 2.85711 3.17188 19.0285 3.17188 40C3.17188 60.9713 17.4004 77.1427 37.9147 77.1427C58.4291 77.1427 70.8291 62.5141 70.8291 42.8571C70.8291 36.5714 68.3148 33.3143 61.9148 33.3143Z" stroke="#0D0D0D" stroke-width="5.71429" stroke-linecap="round" stroke-linejoin="round"/>
</svg>
