<svg width="80" height="74" viewBox="0 0 80 74" fill="none" xmlns="http://www.w3.org/2000/svg">
<path d="M9.69105 70.2427C13.4653 70.2427 16.525 67.1833 16.525 63.409C16.525 59.6347 13.4653 56.5747 9.69105 56.5747C5.91677 56.5747 2.85711 59.6347 2.85711 63.409C2.85711 67.1833 5.91677 70.2427 9.69105 70.2427Z" fill="white"/>
<path d="M40 3.8125L77.1429 19.9056L40 35.9986L2.85714 19.9056L40 3.8125Z" fill="#93C51D"/>
<path d="M19.7466 44.7597C19.7466 44.7597 25.8789 52.875 39.9982 52.875C54.1176 52.875 60.2828 44.7597 60.2828 44.7597L60.2788 27.25H19.7098L19.7466 44.7597Z" fill="#93C51D"/>
<path d="M40 3.8125L77.1429 19.9056L40 35.9986L2.85714 19.9056L40 3.8125Z" stroke="#0D0D0D" stroke-width="5.71429" stroke-linecap="round" stroke-linejoin="round"/>
<path d="M19.7098 27.25L19.7466 44.7597C19.7466 44.7597 25.8789 52.875 39.9982 52.875C54.1176 52.875 60.2828 44.7597 60.2828 44.7597L60.2788 27.25" stroke="#0D0D0D" stroke-width="5.71429" stroke-linecap="round" stroke-linejoin="round"/>
<path d="M9.68747 56.5747V22.9141" stroke="#0D0D0D" stroke-width="5.71429" stroke-linecap="round" stroke-linejoin="round"/>
<path d="M9.69105 70.2427C13.4653 70.2427 16.525 67.1833 16.525 63.409C16.525 59.6347 13.4653 56.5747 9.69105 56.5747C5.91677 56.5747 2.85711 59.6347 2.85711 63.409C2.85711 67.1833 5.91677 70.2427 9.69105 70.2427Z" stroke="#0D0D0D" stroke-width="5.71429" stroke-linecap="round" stroke-linejoin="round"/>
</svg>
