<svg width="70" height="80" viewBox="0 0 70 80" fill="none" xmlns="http://www.w3.org/2000/svg">
<path d="M62.3274 3.11328H7.67839C5.4117 3.11328 3.57422 4.95079 3.57422 7.21744V34.2852C3.57422 36.5518 5.4117 38.3893 7.67839 38.3893H62.3274C64.5937 38.3893 66.4314 36.5518 66.4314 34.2852V7.21744C66.4314 4.95079 64.5937 3.11328 62.3274 3.11328Z" fill="#47C6E8"/>
<path d="M14.8893 60.1866C18.4914 60.1866 21.4114 57.2666 21.4114 53.6647C21.4114 50.0626 18.4914 47.1426 14.8893 47.1426C11.2872 47.1426 8.36719 50.0626 8.36719 53.6647C8.36719 57.2666 11.2872 60.1866 14.8893 60.1866Z" fill="#47C6E8"/>
<path d="M35.0015 22.928C38.3097 22.928 40.9914 20.2462 40.9914 16.9381C40.9914 13.63 38.3097 10.9482 35.0015 10.9482C31.6935 10.9482 29.0117 13.63 29.0117 16.9381C29.0117 20.2462 31.6935 22.928 35.0015 22.928Z" fill="#FAE9FD"/>
<path d="M55.1471 60.1866C58.7494 60.1866 61.6694 57.2666 61.6694 53.6647C61.6694 50.0626 58.7494 47.1426 55.1471 47.1426C51.5451 47.1426 48.625 50.0626 48.625 53.6647C48.625 57.2666 51.5451 60.1866 55.1471 60.1866Z" fill="#47C6E8"/>
<path d="M14.8893 60.1866C18.4914 60.1866 21.4114 57.2666 21.4114 53.6647C21.4114 50.0626 18.4914 47.1426 14.8893 47.1426C11.2872 47.1426 8.36719 50.0626 8.36719 53.6647C8.36719 57.2666 11.2872 60.1866 14.8893 60.1866Z" stroke="#0D0D0D" stroke-width="5.71429" stroke-linecap="round" stroke-linejoin="round"/>
<path d="M4.66882 71.3515C3.68973 73.0823 3.16527 75.0332 3.14453 77.0218H26.6241C26.6033 75.0332 26.0789 73.0823 25.0998 71.3515C23.0365 67.704 19.0739 65.388 14.8843 65.3789C10.6947 65.388 6.73207 67.704 4.66882 71.3515Z" fill="#47C6E8"/>
<path d="M25.0912 32.8942C24.1419 34.5724 23.6334 36.4639 23.6133 38.3919H46.3788C46.3586 36.4639 45.8501 34.5724 44.9008 32.8942C42.9003 29.3577 39.0582 27.1118 34.996 27.103C30.9339 27.1118 27.0917 29.3577 25.0912 32.8942Z" fill="#FAE9FD"/>
<path d="M3.14453 77.0218C3.16527 75.0332 3.68973 73.0823 4.66882 71.3515C6.73207 67.704 10.6947 65.388 14.8843 65.3789C19.0739 65.388 23.0365 67.704 25.0998 71.3515C26.0789 73.0823 26.6033 75.0332 26.6241 77.0218" stroke="#0D0D0D" stroke-width="5.71429" stroke-linecap="round" stroke-linejoin="round"/>
<path d="M55.1471 60.1866C58.7494 60.1866 61.6694 57.2666 61.6694 53.6647C61.6694 50.0626 58.7494 47.1426 55.1471 47.1426C51.5451 47.1426 48.625 50.0626 48.625 53.6647C48.625 57.2666 51.5451 60.1866 55.1471 60.1866Z" stroke="#0D0D0D" stroke-width="5.71429" stroke-linecap="round" stroke-linejoin="round"/>
<path d="M44.9266 71.3515C43.9475 73.0823 43.4231 75.0332 43.4023 77.0218H66.8819C66.8614 75.0332 66.3368 73.0823 65.3574 71.3515C63.2945 67.704 59.3317 65.388 55.1419 65.3789C50.9525 65.388 46.9899 67.704 44.9266 71.3515Z" fill="#47C6E8"/>
<path d="M43.4023 77.0218C43.4231 75.0332 43.9475 73.0823 44.9266 71.3515C46.9899 67.704 50.9525 65.388 55.1419 65.3789C59.3317 65.388 63.2945 67.704 65.3574 71.3515C66.3368 73.0823 66.8614 75.0332 66.8819 77.0218" stroke="#0D0D0D" stroke-width="5.71429" stroke-linecap="round" stroke-linejoin="round"/>
<path d="M34.9976 22.9279C38.3057 22.9279 40.9874 20.2461 40.9874 16.9381C40.9874 13.63 38.3057 10.9482 34.9976 10.9482C31.6895 10.9482 29.0078 13.63 29.0078 16.9381C29.0078 20.2461 31.6895 22.9279 34.9976 22.9279Z" stroke="#0D0D0D" stroke-width="5.71429" stroke-linecap="round" stroke-linejoin="round"/>
<path d="M23.6172 38.3925C23.6374 36.4645 24.1458 34.5731 25.0951 32.8948C27.0957 29.3581 30.9379 27.1123 35.0001 27.1035C39.0623 27.1123 42.9045 29.3581 44.9051 32.8948C45.8544 34.573 46.3629 36.4645 46.383 38.3925" stroke="#0D0D0D" stroke-width="5.71429" stroke-linecap="round" stroke-linejoin="round"/>
<path d="M62.3274 3.11328H7.67839C5.4117 3.11328 3.57422 4.95079 3.57422 7.21744V34.2852C3.57422 36.5518 5.4117 38.3893 7.67839 38.3893H62.3274C64.5937 38.3893 66.4314 36.5518 66.4314 34.2852V7.21744C66.4314 4.95079 64.5937 3.11328 62.3274 3.11328Z" stroke="#0D0D0D" stroke-width="5.71429" stroke-linecap="round" stroke-linejoin="round"/>
</svg>
