<svg width="70" height="80" viewBox="0 0 70 80" fill="none" xmlns="http://www.w3.org/2000/svg">
<path d="M60.7142 2.85693H9.28561C6.12972 2.85693 3.57132 5.4153 3.57132 8.57122V71.4284C3.57132 74.5844 6.12972 77.1426 9.28561 77.1426H60.7142C63.8702 77.1426 66.4285 74.5844 66.4285 71.4284V8.57122C66.4285 5.4153 63.8702 2.85693 60.7142 2.85693Z" fill="white"/>
<path d="M60.5582 77.098C63.7136 77.098 66.2724 74.5398 66.2724 71.3838L66.4284 59.9998H3.5713L3.41507 71.3838C3.41507 74.5398 5.97341 77.098 9.12936 77.098H60.5582Z" fill="#DA5077"/>
<path d="M60.7142 2.85693H9.28561C6.12972 2.85693 3.57132 5.4153 3.57132 8.57122V71.4284C3.57132 74.5844 6.12972 77.1426 9.28561 77.1426H60.7142C63.8702 77.1426 66.4285 74.5844 66.4285 71.4284V8.57122C66.4285 5.4153 63.8702 2.85693 60.7142 2.85693Z" stroke="#0D0D0D" stroke-width="5.71429" stroke-linecap="round" stroke-linejoin="round"/>
<path d="M3.57132 59.9998H66.4285" stroke="#0D0D0D" stroke-width="5.71429" stroke-linecap="round" stroke-linejoin="round"/>
<path d="M17.857 22.8582C21.2004 18.1319 27.6253 12.6264 32.1427 17.1439C37.857 22.8582 19.5437 38.5329 26.4285 42.8582C33.951 47.5841 45.0777 23.8624 52.1427 28.5724C59.2079 33.2825 43.5713 42.8581 52.1427 48.5724" stroke="#0D0D0D" stroke-width="5.71429" stroke-linecap="round" stroke-linejoin="round"/>
</svg>
