<svg width="80" height="80" viewBox="0 0 80 80" fill="none" xmlns="http://www.w3.org/2000/svg">
<path d="M41.6855 56.9728C41.6855 54.1881 43.943 51.9307 46.7276 51.9307H71.938C74.7226 51.9307 76.9797 54.1881 76.9797 56.9728V72.0991C76.9797 74.8836 74.7226 77.1408 71.938 77.1408H46.7276C43.943 77.1408 41.6855 74.8836 41.6855 72.0991V56.9728Z" fill="#DCF6FD"/>
<path d="M8.88324 31.5718C12.634 27.821 17.7211 25.7139 23.0254 25.7139C28.3297 25.7139 33.4168 27.821 37.1675 31.5718C40.9183 35.3224 43.0254 40.4095 43.0254 45.7139V54.2853H33.3267L30.4696 77.1424H15.5812L12.724 54.2853H3.02539V45.7139C3.02539 40.4095 5.13253 35.3224 8.88324 31.5718Z" fill="#CB45E2"/>
<path d="M23.0262 25.7141C29.3381 25.7141 34.4548 20.5973 34.4548 14.2855C34.4548 7.97368 29.3381 2.85693 23.0262 2.85693C16.7144 2.85693 11.5977 7.97368 11.5977 14.2855C11.5977 20.5973 16.7144 25.7141 23.0262 25.7141Z" fill="#CB45E2"/>
<path d="M23.0262 25.7141C29.3381 25.7141 34.4548 20.5973 34.4548 14.2855C34.4548 7.97368 29.3381 2.85693 23.0262 2.85693C16.7144 2.85693 11.5977 7.97368 11.5977 14.2855C11.5977 20.5973 16.7144 25.7141 23.0262 25.7141Z" stroke="#0D0D0D" stroke-width="5.71429" stroke-linecap="round" stroke-linejoin="round"/>
<path d="M32.6619 60.1396L30.5366 77.1424H15.5812L12.724 54.2853H3.02539V45.7139C3.02539 40.4095 5.13253 35.3224 8.88324 31.5718C12.634 27.821 17.7211 25.7139 23.0254 25.7139C28.3297 25.7139 33.4168 27.821 37.1675 31.5718C40.0524 34.4566 41.965 38.1321 42.6942 42.089" stroke="#0D0D0D" stroke-width="5.71429" stroke-linecap="round" stroke-linejoin="round"/>
<path d="M41.6855 56.9728C41.6855 54.1881 43.943 51.9307 46.7276 51.9307H71.938C74.7226 51.9307 76.9797 54.1881 76.9797 56.9728V72.0991C76.9797 74.8836 74.7226 77.1408 71.938 77.1408H46.7276C43.943 77.1408 41.6855 74.8836 41.6855 72.0991V56.9728Z" stroke="#0D0D0D" stroke-width="5.71429" stroke-linecap="round" stroke-linejoin="round"/>
<path d="M52.4336 51.9338V48.2143C52.4336 45.0583 54.992 42.5 58.148 42.5H60.5057C63.6611 42.5 66.22 45.0583 66.22 48.2143V51.9338" stroke="#0D0D0D" stroke-width="5.71429" stroke-linecap="round" stroke-linejoin="round"/>
</svg>
