<svg width="156" height="18" viewBox="0 0 156 18" fill="none" xmlns="http://www.w3.org/2000/svg">
<path d="M-15.1992 8.80039C-9.17255 0.267058 -3.14588 0.267058 2.88078 8.80039C8.90745 17.3337 14.9341 17.3337 20.9608 8.80039C26.9875 0.267058 33.0141 0.267058 39.0408 8.80039C45.0675 17.3337 51.0941 17.3337 57.1208 8.80039C63.1475 0.267058 69.1741 0.267058 75.2008 8.80039C81.2275 17.3337 87.2541 17.3337 93.2808 8.80039C99.3075 0.267058 105.334 0.267058 111.361 8.80039C117.387 17.3337 123.414 17.3337 129.441 8.80039C135.467 0.267058 141.494 0.267058 147.521 8.80039C153.547 17.3337 159.574 17.3337 165.601 8.80039C171.627 0.267058 177.654 0.267058 183.681 8.80039C189.707 17.3337 195.734 17.3337 201.761 8.80039C207.787 0.267058 213.814 0.267058 219.841 8.80039C225.867 17.3337 231.894 17.3337 237.921 8.80039C243.947 0.267058 249.974 0.267058 256.001 8.80039C262.027 17.3337 268.054 17.3337 274.081 8.80039C280.107 0.267058 286.134 0.267058 292.161 8.80039C298.187 17.3337 304.214 17.3337 310.241 8.80039C316.267 0.267058 322.294 0.267058 328.321 8.80039C334.347 17.3337 340.374 17.3337 346.401 8.80039" stroke="#CB45E2" stroke-width="4"/>
<path d="M-15.1992 8.80039C-9.17255 0.267058 -3.14588 0.267058 2.88078 8.80039C8.90745 17.3337 14.9341 17.3337 20.9608 8.80039C26.9875 0.267058 33.0141 0.267058 39.0408 8.80039C45.0675 17.3337 51.0941 17.3337 57.1208 8.80039C63.1475 0.267058 69.1741 0.267058 75.2008 8.80039C81.2275 17.3337 87.2541 17.3337 93.2808 8.80039C99.3075 0.267058 105.334 0.267058 111.361 8.80039C117.387 17.3337 123.414 17.3337 129.441 8.80039C135.467 0.267058 141.494 0.267058 147.521 8.80039C153.547 17.3337 159.574 17.3337 165.601 8.80039C171.627 0.267058 177.654 0.267058 183.681 8.80039C189.707 17.3337 195.734 17.3337 201.761 8.80039C207.787 0.267058 213.814 0.267058 219.841 8.80039C225.867 17.3337 231.894 17.3337 237.921 8.80039C243.947 0.267058 249.974 0.267058 256.001 8.80039C262.027 17.3337 268.054 17.3337 274.081 8.80039C280.107 0.267058 286.134 0.267058 292.161 8.80039C298.187 17.3337 304.214 17.3337 310.241 8.80039C316.267 0.267058 322.294 0.267058 328.321 8.80039C334.347 17.3337 340.374 17.3337 346.401 8.80039" stroke="white" stroke-opacity="0.4" stroke-width="4"/>
</svg>
