<svg width="80" height="80" viewBox="0 0 80 80" fill="none" xmlns="http://www.w3.org/2000/svg">
<path d="M33.1868 62.8598L45.6325 75.2484C46.3961 76.0306 47.3508 76.6004 48.4022 76.9009C49.4536 77.2015 50.5652 77.2221 51.627 76.9609C52.6955 76.7124 53.682 76.1935 54.4919 75.4535C55.3017 74.7135 55.9076 73.7781 56.2513 72.7364L76.6897 11.4784C77.116 10.3306 77.204 9.08453 76.9434 7.88819C76.6823 6.69179 76.0834 5.59557 75.2171 4.72973C74.3514 3.86388 73.2554 3.26486 72.0588 3.00387C70.8628 2.74288 69.6165 2.83088 68.4685 3.25743L7.21077 23.6957C6.13317 24.0638 5.17343 24.713 4.43073 25.5761C3.68802 26.4393 3.18929 27.4851 2.98607 28.6055C2.77631 29.6245 2.82301 30.6797 3.12195 31.6762C3.4209 32.6726 3.96274 33.5793 4.69878 34.3145L20.3415 49.9573L19.8277 69.7678L33.1868 62.8598Z" fill="#E35ED8"/>
<path d="M33.1868 62.8598L45.6325 75.2484C46.3961 76.0306 47.3508 76.6004 48.4022 76.9009C49.4536 77.2015 50.5652 77.2221 51.627 76.9609C52.6955 76.7124 53.682 76.1935 54.4919 75.4535C55.3017 74.7135 55.9076 73.7781 56.2513 72.7364L76.6897 11.4784C77.116 10.3306 77.204 9.08453 76.9434 7.88819C76.6823 6.69179 76.0834 5.59557 75.2171 4.72973C74.3514 3.86388 73.2554 3.26486 72.0588 3.00387C70.8628 2.74288 69.6165 2.83088 68.4685 3.25743L7.21077 23.6957C6.13317 24.0638 5.17343 24.713 4.43073 25.5761C3.68802 26.4393 3.18929 27.4851 2.98607 28.6055C2.77631 29.6245 2.82301 30.6797 3.12195 31.6762C3.4209 32.6726 3.96274 33.5793 4.69878 34.3145L20.3415 49.9573L19.8277 69.7678L33.1868 62.8598Z" stroke="#0D0D0D" stroke-width="5.71429" stroke-linecap="round" stroke-linejoin="round"/>
<path d="M74.8632 4.51416L20.3418 49.958" stroke="#0D0D0D" stroke-width="5.71429" stroke-linecap="round" stroke-linejoin="round"/>
</svg>
