<svg width="69" height="81" viewBox="0 0 69 81" fill="none" xmlns="http://www.w3.org/2000/svg">
<path d="M65.9649 72.0285C65.9649 73.5439 65.3626 74.9976 64.2911 76.069C63.2191 77.1405 61.766 77.7427 60.2506 77.7427H8.82171C7.30616 77.7427 5.85274 77.1405 4.78108 76.069C3.70946 74.9976 3.10742 73.5439 3.10742 72.0285V9.17132C3.10742 7.65577 3.70946 6.20235 4.78108 5.13071C5.85274 4.05907 7.30616 3.45703 8.82171 3.45703H43.1074L65.9649 26.3142V72.0285Z" fill="#47C6E8"/>
<path d="M65.9648 72.0285C65.9648 73.5439 65.3626 74.9976 64.2911 76.069C63.2191 77.1405 61.766 77.7427 60.2506 77.7427H8.82171C7.30616 77.7427 5.85274 77.1405 4.78108 76.069C3.70946 74.9976 3.10742 73.5439 3.10742 72.0285V9.17132C3.10742 7.65577 3.70946 6.20235 4.78108 5.13071C5.85274 4.05907 7.30616 3.45703 8.82171 3.45703H40.7405C42.256 3.45703 43.7095 4.05907 44.7811 5.13071L64.2911 24.6405C65.3626 25.7121 65.9648 27.1656 65.9648 28.6811V72.0285Z" stroke="#0D0D0D" stroke-width="5.71429" stroke-linecap="round" stroke-linejoin="round"/>
<path d="M37.7285 37.0283H52.0142" stroke="#0D0D0D" stroke-width="5.71429" stroke-linecap="round" stroke-linejoin="round"/>
<path d="M37.7285 56.8496H52.0142" stroke="#0D0D0D" stroke-width="5.71429" stroke-linecap="round" stroke-linejoin="round"/>
<path d="M15.6289 56.5265L20.4168 61.3145L28.3967 50.1426" stroke="#0D0D0D" stroke-width="5.71429" stroke-linecap="round" stroke-linejoin="round"/>
<path d="M15.6289 36.3478L20.4168 41.1358L28.3967 29.9639" stroke="#0D0D0D" stroke-width="5.71429" stroke-linecap="round" stroke-linejoin="round"/>
</svg>
