<svg width="80" height="80" viewBox="0 0 80 80" fill="none" xmlns="http://www.w3.org/2000/svg">
<path fill-rule="evenodd" clip-rule="evenodd" d="M77.1428 39.9998C77.1428 60.5135 60.5137 77.1426 40 77.1426C19.4865 77.1426 2.85712 60.5135 2.85712 39.9998C2.85712 19.4864 19.4865 2.85693 40 2.85693C60.5137 2.85693 77.1428 19.4864 77.1428 39.9998ZM49.2335 33.8442L57.9131 29.997C58.1468 29.9067 58.3994 29.8749 58.6485 29.9045C58.8977 29.9341 59.136 30.0241 59.3423 30.1668C59.5485 30.3093 59.7165 30.5002 59.8325 30.7228C59.948 30.9453 60.008 31.1928 60.0057 31.4436V48.5563C60.008 48.8071 59.948 49.0546 59.8325 49.2771C59.7165 49.4996 59.5485 49.6905 59.3423 49.8331C59.136 49.9757 58.8977 50.0657 58.6485 50.0953C58.3994 50.1249 58.1468 50.0932 57.9131 50.0029L49.2335 46.1556V50.7724C49.2335 51.5886 48.9092 52.3715 48.332 52.9487C47.7548 53.5259 46.972 53.8502 46.1557 53.8502H23.0719C22.2556 53.8502 21.4728 53.5259 20.8956 52.9487C20.3184 52.3715 19.9941 51.5886 19.9941 50.7724V29.2275C19.9941 28.4112 20.3184 27.6284 20.8956 27.0512C21.4728 26.474 22.2556 26.1497 23.0719 26.1497H46.1557C46.972 26.1497 47.7548 26.474 48.332 27.0512C48.9092 27.6284 49.2335 28.4112 49.2335 29.2275V33.8442Z" fill="#C082F2"/>
<path d="M57.9135 29.9967L49.2338 33.844V29.2272C49.2338 28.411 48.9095 27.6281 48.3323 27.0509C47.7551 26.4737 46.9723 26.1494 46.156 26.1494H23.0722C22.2559 26.1494 21.4731 26.4737 20.8959 27.0509C20.3187 27.6281 19.9944 28.411 19.9944 29.2272V50.7721C19.9944 51.5884 20.3187 52.3712 20.8959 52.9484C21.4731 53.5256 22.2559 53.8499 23.0722 53.8499H46.156C46.9723 53.8499 47.7551 53.5256 48.3323 52.9484C48.9095 52.3712 49.2338 51.5884 49.2338 50.7721V46.1554L57.9135 50.0026C58.1472 50.093 58.3998 50.1247 58.6489 50.0951C58.898 50.0655 59.1358 49.9755 59.3426 49.8328C59.5489 49.6903 59.7169 49.4994 59.8329 49.2768C59.9483 49.0543 60.0078 48.8068 60.006 48.556V31.4433C60.0078 31.1925 59.9483 30.9451 59.8329 30.7225C59.7169 30.5 59.5489 30.3091 59.3426 30.1665C59.1358 30.0239 58.898 29.9339 58.6489 29.9043C58.3998 29.8747 58.1472 29.9064 57.9135 29.9967Z" fill="white"/>
<path d="M57.9135 29.9967L49.2338 33.844V29.2272C49.2338 28.411 48.9095 27.6281 48.3323 27.0509C47.7551 26.4737 46.9723 26.1494 46.156 26.1494H23.0722C22.2559 26.1494 21.4731 26.4737 20.8959 27.0509C20.3187 27.6281 19.9944 28.411 19.9944 29.2272V50.7721C19.9944 51.5884 20.3187 52.3712 20.8959 52.9484C21.4731 53.5256 22.2559 53.8499 23.0722 53.8499H46.156C46.9723 53.8499 47.7551 53.5256 48.3323 52.9484C48.9095 52.3712 49.2338 51.5884 49.2338 50.7721V46.1554L57.9135 50.0026C58.1472 50.093 58.3998 50.1247 58.6489 50.0951C58.898 50.0655 59.1358 49.9755 59.3426 49.8328C59.5489 49.6903 59.7169 49.4994 59.8329 49.2768C59.9483 49.0543 60.0078 48.8068 60.006 48.556V31.4433C60.0078 31.1925 59.9483 30.9451 59.8329 30.7225C59.7169 30.5 59.5489 30.3091 59.3426 30.1665C59.1358 30.0239 58.898 29.9339 58.6489 29.9043C58.3998 29.8747 58.1472 29.9064 57.9135 29.9967Z" stroke="#0D0D0D" stroke-width="5.71429" stroke-linecap="round" stroke-linejoin="round"/>
<path d="M40 77.1426C60.5137 77.1426 77.1428 60.5135 77.1428 39.9998C77.1428 19.4864 60.5137 2.85693 40 2.85693C19.4865 2.85693 2.85712 19.4864 2.85712 39.9998C2.85712 60.5135 19.4865 77.1426 40 77.1426Z" stroke="#0D0D0D" stroke-width="5.71429" stroke-linecap="round" stroke-linejoin="round"/>
</svg>
